<mxfile host="app.diagrams.net" agent="Mozilla/5.0 (Windows NT 10.0; Win64; x64) AppleWebKit/537.36 (KHTML, like Gecko) Chrome/135.0.0.0 Safari/537.36 Edg/135.0.0.0" version="26.2.13">
  <diagram id="d1ab7348-05c3-a1e3-ca4d-12c340fd6b49" name="Page-1">
    <mxGraphModel dx="1182" dy="1520" grid="1" gridSize="10" guides="1" tooltips="1" connect="1" arrows="1" fold="1" page="1" pageScale="1" pageWidth="1169" pageHeight="827" background="none" math="0" shadow="0">
      <root>
        <mxCell id="0" />
        <mxCell id="1" parent="0" />
        <mxCell id="3ZfG_3-aHI2Txs_DAWEP-415" value="&lt;br&gt;&lt;br&gt;&lt;div&gt;&lt;br/&gt;&lt;/div&gt;" style="fillColor=#F6F6F6;strokeColor=none;shadow=0;gradientColor=none;fontSize=14;align=left;spacing=10;fontColor=#717171;9E9E9E;verticalAlign=top;spacingTop=-4;fontStyle=0;spacingLeft=40;html=1;container=0;" parent="1" vertex="1">
          <mxGeometry x="190" y="50" width="830" height="679" as="geometry" />
        </mxCell>
        <mxCell id="3ZfG_3-aHI2Txs_DAWEP-419" value="PRD" style="rounded=1;absoluteArcSize=1;arcSize=2;html=1;strokeColor=none;gradientColor=none;shadow=0;dashed=0;strokeColor=none;fontSize=12;fontColor=#9E9E9E;align=left;verticalAlign=top;spacing=10;spacingTop=-4;fillColor=#E1F5FE;" parent="1" vertex="1">
          <mxGeometry x="502.5" y="484" width="437.5" height="225" as="geometry" />
        </mxCell>
        <mxCell id="3ZfG_3-aHI2Txs_DAWEP-420" style="edgeStyle=orthogonalEdgeStyle;rounded=0;html=1;labelBackgroundColor=none;startFill=1;startSize=4;endArrow=blockThin;endFill=1;endSize=4;jettySize=auto;orthogonalLoop=1;strokeColor=#4284F3;strokeWidth=2;fontSize=12;fontColor=#000000;align=center;dashed=0;" parent="1" source="3ZfG_3-aHI2Txs_DAWEP-421" edge="1">
          <mxGeometry relative="1" as="geometry">
            <mxPoint x="222.5" y="258" as="targetPoint" />
          </mxGeometry>
        </mxCell>
        <mxCell id="3ZfG_3-aHI2Txs_DAWEP-421" value="Development&lt;br&gt;Team&lt;br&gt;" style="rounded=1;absoluteArcSize=1;arcSize=2;html=1;strokeColor=none;gradientColor=none;shadow=0;dashed=0;strokeColor=none;fontSize=12;fontColor=#9E9E9E;align=left;verticalAlign=top;spacing=10;spacingTop=-4;fillColor=#F3E5F5;" parent="1" vertex="1">
          <mxGeometry x="62.5" y="199" width="90" height="120" as="geometry" />
        </mxCell>
        <mxCell id="3ZfG_3-aHI2Txs_DAWEP-422" value="" style="strokeColor=#dddddd;fillColor=#ffffff;shadow=1;strokeWidth=1;rounded=1;absoluteArcSize=1;arcSize=2;labelPosition=center;verticalLabelPosition=middle;align=center;verticalAlign=bottom;spacingLeft=0;fontColor=#999999;fontSize=12;whiteSpace=wrap;spacingBottom=2;html=1;" parent="1" vertex="1">
          <mxGeometry x="72.5" y="239" width="70" height="70" as="geometry" />
        </mxCell>
        <mxCell id="3ZfG_3-aHI2Txs_DAWEP-423" value="" style="dashed=0;connectable=0;html=1;fillColor=#757575;strokeColor=none;shape=mxgraph.gcp2.laptop;part=1;" parent="3ZfG_3-aHI2Txs_DAWEP-422" vertex="1">
          <mxGeometry x="0.5" width="50" height="33" relative="1" as="geometry">
            <mxPoint x="-25" y="18.5" as="offset" />
          </mxGeometry>
        </mxCell>
        <mxCell id="3ZfG_3-aHI2Txs_DAWEP-452" value="1" style="shape=ellipse;fillColor=#ffffff;strokeColor=#BDBDBD;strokeWidth=2;shadow=0;gradientColor=none;fontColor=#757575;align=center;html=1;fontStyle=1;spacingTop=-1;" parent="1" vertex="1">
          <mxGeometry x="190" y="264" width="20" height="20" as="geometry" />
        </mxCell>
        <mxCell id="3ZfG_3-aHI2Txs_DAWEP-458" value="" style="fillColor=#ffffff;strokeColor=#BDBDBD;strokeWidth=1;shadow=0;gradientColor=none;fontSize=10;fontColor=#9E9E9E;align=center;html=1;" parent="1" vertex="1">
          <mxGeometry x="190" y="740" width="830" height="70" as="geometry" />
        </mxCell>
        <mxCell id="3ZfG_3-aHI2Txs_DAWEP-459" value="&lt;b&gt;1&lt;/b&gt; Commit code" style="strokeColor=none;fillColor=none;fontColor=#757575;align=left;html=1;fontStyle=0;spacingLeft=5;fontSize=11;verticalAlign=top;whiteSpace=wrap;spacingRight=5;" parent="3ZfG_3-aHI2Txs_DAWEP-458" vertex="1">
          <mxGeometry width="200" height="30" relative="1" as="geometry" />
        </mxCell>
        <mxCell id="3ZfG_3-aHI2Txs_DAWEP-460" value="&lt;b&gt;2 &lt;/b&gt;DEV branch push" style="strokeColor=none;fillColor=none;fontColor=#757575;align=left;html=1;fontStyle=0;spacingLeft=5;fontSize=11;verticalAlign=top;whiteSpace=wrap;spacingRight=5;" parent="3ZfG_3-aHI2Txs_DAWEP-458" vertex="1">
          <mxGeometry width="200" height="30" relative="1" as="geometry">
            <mxPoint y="30" as="offset" />
          </mxGeometry>
        </mxCell>
        <mxCell id="3ZfG_3-aHI2Txs_DAWEP-461" value="&lt;b&gt;4&lt;/b&gt;&amp;nbsp;New Docker Image Build &amp;amp; Push" style="strokeColor=none;fillColor=none;fontColor=#757575;align=left;html=1;fontStyle=0;spacingLeft=5;fontSize=11;verticalAlign=top;whiteSpace=wrap;spacingRight=5;" parent="3ZfG_3-aHI2Txs_DAWEP-458" vertex="1">
          <mxGeometry width="190" height="30" relative="1" as="geometry">
            <mxPoint x="200" y="30" as="offset" />
          </mxGeometry>
        </mxCell>
        <mxCell id="3ZfG_3-aHI2Txs_DAWEP-462" value="&lt;b&gt;5&lt;/b&gt;&amp;nbsp;New Instance group template create" style="strokeColor=none;fillColor=none;fontColor=#757575;align=left;html=1;fontStyle=0;spacingLeft=5;fontSize=11;verticalAlign=top;whiteSpace=wrap;spacingRight=5;" parent="3ZfG_3-aHI2Txs_DAWEP-458" vertex="1">
          <mxGeometry width="280" height="30" relative="1" as="geometry">
            <mxPoint x="500" as="offset" />
          </mxGeometry>
        </mxCell>
        <mxCell id="t7HYjAxh3Kxee4GZpd-M-89" value="&lt;b&gt;3&lt;/b&gt; MAIN branch Merge request" style="strokeColor=none;fillColor=none;fontColor=#757575;align=left;html=1;fontStyle=0;spacingLeft=5;fontSize=11;verticalAlign=top;whiteSpace=wrap;spacingRight=5;" vertex="1" parent="3ZfG_3-aHI2Txs_DAWEP-458">
          <mxGeometry x="200" width="200" height="30" as="geometry" />
        </mxCell>
        <mxCell id="t7HYjAxh3Kxee4GZpd-M-90" value="&lt;b&gt;6&lt;/b&gt; Perform rolling update of image to instance group&lt;br&gt;&amp;nbsp; &amp;nbsp;by New Instance group template" style="strokeColor=none;fillColor=none;fontColor=#757575;align=left;html=1;fontStyle=0;spacingLeft=5;fontSize=11;verticalAlign=top;whiteSpace=wrap;spacingRight=5;" vertex="1" parent="3ZfG_3-aHI2Txs_DAWEP-458">
          <mxGeometry x="500.0000000000002" y="30" width="280" height="30" as="geometry" />
        </mxCell>
        <mxCell id="3ZfG_3-aHI2Txs_DAWEP-527" value="" style="shape=mxgraph.gcp2.doubleRect;strokeColor=#dddddd;shadow=1;strokeWidth=1;rounded=1;absoluteArcSize=1;arcSize=2;" parent="1" vertex="1">
          <mxGeometry x="512.5" y="611" width="187.5" height="68" as="geometry" />
        </mxCell>
        <mxCell id="3ZfG_3-aHI2Txs_DAWEP-521" value="" style="strokeColor=#dddddd;shadow=1;strokeWidth=1;rounded=1;absoluteArcSize=1;arcSize=2;" parent="1" vertex="1">
          <mxGeometry x="222.5" y="357" width="170" height="60" as="geometry" />
        </mxCell>
        <mxCell id="3ZfG_3-aHI2Txs_DAWEP-522" value="&lt;font style=&quot;font-size: 9px;&quot;&gt;&lt;span style=&quot;color: rgb(0, 0, 0);&quot;&gt;soil-ace-psm-vm-&lt;b&gt;jenkins&lt;/b&gt;&lt;/span&gt;&lt;br&gt;Compute Engine&lt;/font&gt;" style="editableCssRules=.*;html=1;fontColor=#999999;shape=image;verticalLabelPosition=middle;verticalAlign=middle;labelPosition=right;align=left;spacingLeft=20;part=1;points=[];imageAspect=0;image=data:image/svg+xml,PHN2ZyB4bWxucz0iaHR0cDovL3d3dy53My5vcmcvMjAwMC9zdmciIHhtbG5zOnY9Imh0dHBzOi8vdmVjdGEuaW8vbmFubyIgd2lkdGg9IjIwIiBoZWlnaHQ9IjIwIiB2aWV3Qm94PSIwIDAgMjAgMjAiPiYjeGE7CTxzdHlsZSB0eXBlPSJ0ZXh0L2NzcyI+JiN4YTsJLnN0MHtmaWxsOiM0Mjg1ZjQ7fSYjeGE7CS5zdDF7ZmlsbDojNjY5ZGY2O30mI3hhOwkuc3Qye2ZpbGw6I2FlY2JmYTt9JiN4YTsJPC9zdHlsZT4mI3hhOwk8cGF0aCBjbGFzcz0ic3QyIiBkPSJNNyA3aDZ2Nkg3eiIvPiYjeGE7CTxwYXRoIGNsYXNzPSJzdDEiIGQ9Ik05IDBoMnY0SDl6TTUgMGgydjRINXptOCAwaDJ2NGgtMnoiLz4mI3hhOwk8cGF0aCBjbGFzcz0ic3QwIiBkPSJNOSAxNmgydjRIOXptLTQgMGgydjRINXptOCAwaDJ2NGgtMnptMy01VjloNHYyem0wIDR2LTJoNHYyem0wLThWNWg0djJ6Ii8+JiN4YTsJPHBhdGggY2xhc3M9InN0MSIgZD0iTTAgMTFWOWg0djJ6bTAgNHYtMmg0djJ6bTAtOFY1aDR2MnoiLz4mI3hhOwk8cGF0aCBjbGFzcz0ic3QyIiBkPSJNMyAzdjE0aDE0VjN6bTEyIDEySDVWNWgxMHoiLz4mI3hhOwk8cGF0aCBjbGFzcz0ic3QxIiBkPSJNMTAgMTBsLTMgM2g2eiIvPiYjeGE7CTxwYXRoIGNsYXNzPSJzdDAiIGQ9Ik0xMyA3bC0zIDMgMyAzeiIvPiYjeGE7PC9zdmc+;" parent="3ZfG_3-aHI2Txs_DAWEP-521" vertex="1">
          <mxGeometry width="30" height="30" relative="1" as="geometry">
            <mxPoint x="15" y="15" as="offset" />
          </mxGeometry>
        </mxCell>
        <mxCell id="3ZfG_3-aHI2Txs_DAWEP-424" style="edgeStyle=orthogonalEdgeStyle;rounded=0;html=1;labelBackgroundColor=none;startFill=1;startSize=4;endArrow=blockThin;endFill=1;endSize=4;jettySize=auto;orthogonalLoop=1;strokeColor=#4284F3;strokeWidth=2;fontSize=12;fontColor=#000000;align=center;dashed=0;" parent="1" target="3ZfG_3-aHI2Txs_DAWEP-521" edge="1">
          <mxGeometry relative="1" as="geometry">
            <mxPoint x="307.5" y="288" as="sourcePoint" />
          </mxGeometry>
        </mxCell>
        <mxCell id="3ZfG_3-aHI2Txs_DAWEP-417" value="Amdin Users" style="rounded=1;absoluteArcSize=1;arcSize=2;html=1;strokeColor=none;gradientColor=none;shadow=0;dashed=0;strokeColor=none;fontSize=12;fontColor=#9E9E9E;align=left;verticalAlign=top;spacing=10;spacingTop=-4;fillColor=#F1F8E9;" parent="1" vertex="1">
          <mxGeometry x="1060" y="239" width="90" height="130" as="geometry" />
        </mxCell>
        <mxCell id="3ZfG_3-aHI2Txs_DAWEP-447" value="" style="strokeColor=#dddddd;fillColor=#ffffff;shadow=1;strokeWidth=1;rounded=1;absoluteArcSize=1;arcSize=2;labelPosition=center;verticalLabelPosition=middle;align=center;verticalAlign=bottom;spacingLeft=0;fontColor=#999999;fontSize=12;whiteSpace=wrap;spacingBottom=2;html=1;" parent="1" vertex="1">
          <mxGeometry x="1070" y="269" width="70" height="69" as="geometry" />
        </mxCell>
        <mxCell id="3ZfG_3-aHI2Txs_DAWEP-448" value="" style="dashed=0;connectable=0;html=1;fillColor=#757575;strokeColor=none;shape=mxgraph.gcp2.laptop;part=1;" parent="3ZfG_3-aHI2Txs_DAWEP-447" vertex="1">
          <mxGeometry x="0.5" width="50" height="33" relative="1" as="geometry">
            <mxPoint x="-25" y="18.5" as="offset" />
          </mxGeometry>
        </mxCell>
        <mxCell id="3ZfG_3-aHI2Txs_DAWEP-531" value="" style="strokeColor=#dddddd;shadow=1;strokeWidth=1;rounded=1;absoluteArcSize=1;arcSize=2;" parent="1" vertex="1">
          <mxGeometry x="740" y="399" width="137.5" height="60" as="geometry" />
        </mxCell>
        <mxCell id="3ZfG_3-aHI2Txs_DAWEP-532" value="Cloud Load&lt;br&gt;Balancing" style="editableCssRules=.*;html=1;fontColor=#999999;shape=image;verticalLabelPosition=middle;verticalAlign=middle;labelPosition=right;align=left;spacingLeft=20;part=1;points=[];imageAspect=0;image=data:image/svg+xml,PHN2ZyB4bWxucz0iaHR0cDovL3d3dy53My5vcmcvMjAwMC9zdmciIHhtbG5zOnY9Imh0dHBzOi8vdmVjdGEuaW8vbmFubyIgd2lkdGg9IjIwIiBoZWlnaHQ9IjIwIiB2aWV3Qm94PSIwIDAgMjAgMjAiPiYjeGE7CTxzdHlsZSB0eXBlPSJ0ZXh0L2NzcyI+JiN4YTsJLnN0MHtmaWxsOiM0Mjg1ZjQ7fSYjeGE7CS5zdDF7ZmlsbDojNjY5ZGY2O30mI3hhOwkuc3Qye2ZpbGw6I2FlY2JmYTt9JiN4YTsJPC9zdHlsZT4mI3hhOwk8cGF0aCBjbGFzcz0ic3QxIiBkPSJNMTYgMTBoMnY0aC0yem0tNyAwaDJ2NEg5em0tNyAwaDJ2NEgyeiIvPiYjeGE7CTxwYXRoIGNsYXNzPSJzdDAiIGQ9Ik05IDVoMnY0SDl6Ii8+JiN4YTsJPHBhdGggY2xhc3M9InN0MSIgZD0iTTIgOWgxNnYySDJ6Ii8+JiN4YTsJPHBhdGggY2xhc3M9InN0MiIgZD0iTTQgMGgxMnY1SDR6Ii8+JiN4YTsJPHBhdGggY2xhc3M9InN0MSIgZD0iTTEwIDBoNnY1aC02eiIvPiYjeGE7CTxwYXRoIGNsYXNzPSJzdDIiIGQ9Ik0xNCAxNGg2djZoLTZ6TTAgMTRoNnY2SDB6Ii8+JiN4YTsJPHBhdGggY2xhc3M9InN0MSIgZD0iTTMgMTRoM3Y2SDN6Ii8+JiN4YTsJPHBhdGggY2xhc3M9InN0MiIgZD0iTTcgMTRoNnY2SDd6Ii8+JiN4YTsJPHBhdGggY2xhc3M9InN0MSIgZD0iTTEwIDE0aDN2NmgtM3ptNyAwaDN2NmgtM3oiLz4mI3hhOzwvc3ZnPg==;" parent="3ZfG_3-aHI2Txs_DAWEP-531" vertex="1">
          <mxGeometry width="30" height="30" relative="1" as="geometry">
            <mxPoint x="15" y="15" as="offset" />
          </mxGeometry>
        </mxCell>
        <mxCell id="3ZfG_3-aHI2Txs_DAWEP-453" value="2" style="shape=ellipse;fillColor=#ffffff;strokeColor=#BDBDBD;strokeWidth=2;shadow=0;gradientColor=none;fontColor=#757575;align=center;html=1;fontStyle=1;spacingTop=-1;" parent="1" vertex="1">
          <mxGeometry x="400" y="269" width="20" height="20" as="geometry" />
        </mxCell>
        <mxCell id="t7HYjAxh3Kxee4GZpd-M-10" value="&lt;font style=&quot;font-size: 9px;&quot;&gt;&lt;font color=&quot;#000000&quot;&gt;soil-ace-psm-prd-ai&lt;b&gt;serv&lt;/b&gt;-mig&lt;/font&gt;&lt;br&gt;Container-Optimized OS&lt;br&gt;Multi Instance group&lt;/font&gt;" style="editableCssRules=.*;html=1;fontColor=#999999;shape=image;verticalLabelPosition=middle;verticalAlign=middle;labelPosition=right;align=left;spacingLeft=20;part=1;points=[];imageAspect=0;image=data:image/svg+xml,PHN2ZyB4bWxucz0iaHR0cDovL3d3dy53My5vcmcvMjAwMC9zdmciIHhtbG5zOnY9Imh0dHBzOi8vdmVjdGEuaW8vbmFubyIgd2lkdGg9IjIwIiBoZWlnaHQ9IjIwIiB2aWV3Qm94PSIwIDAgMjAgMjAiPiYjeGE7CTxzdHlsZSB0eXBlPSJ0ZXh0L2NzcyI+JiN4YTsJLnN0MHtmaWxsOiM0Mjg1ZjQ7fSYjeGE7CTwvc3R5bGU+JiN4YTsJPHBhdGggY2xhc3M9InN0MCIgZD0iTTEwIDBhMTAgMTAgMCAxIDAgMTAgMTBoMEExMCAxMCAwIDAgMCAxMCAwem0wIDE4YTggOCAwIDAgMS00LjE4LTEuMThsMy41OC0yLjA3aDB2LTQuNUw1LjUxIDh2NC41MmwyLjc1IDEuNTktMy40NiAyQTggOCAwIDAgMSA2LjA4IDN2NGgwTDEwIDkuMjggMTMuOSA3IDEwIDQuNzcgNy4yNCA2LjM2VjIuNDdhOCA4IDAgMCAxIDEwLjMxIDQuNyA4LjEgOC4xIDAgMCAxIC41MSAyLjgzdi4wN0wxNC40NiA4aDBsLTMuOSAyLjI2djQuNTFsMy45LTIuMjVWOS4zNGwzLjQ1IDJBOCA4IDAgMCAxIDEwIDE4eiIvPiYjeGE7PC9zdmc+;" vertex="1" parent="1">
          <mxGeometry x="524.75" y="622.5" width="30" height="30" as="geometry" />
        </mxCell>
        <mxCell id="t7HYjAxh3Kxee4GZpd-M-11" value="" style="shape=mxgraph.gcp2.doubleRect;strokeColor=#dddddd;shadow=1;strokeWidth=1;rounded=1;absoluteArcSize=1;arcSize=2;" vertex="1" parent="1">
          <mxGeometry x="512.5" y="514" width="187.5" height="68" as="geometry" />
        </mxCell>
        <mxCell id="t7HYjAxh3Kxee4GZpd-M-12" value="&lt;font style=&quot;font-size: 9px;&quot;&gt;&lt;font color=&quot;#000000&quot;&gt;soil-ace-psm-prd-&lt;b&gt;service&lt;/b&gt;-mig&lt;/font&gt;&lt;br&gt;Container-Optimized OS&lt;br&gt;Multi Instance group&lt;/font&gt;" style="editableCssRules=.*;html=1;fontColor=#999999;shape=image;verticalLabelPosition=middle;verticalAlign=middle;labelPosition=right;align=left;spacingLeft=20;part=1;points=[];imageAspect=0;image=data:image/svg+xml,PHN2ZyB4bWxucz0iaHR0cDovL3d3dy53My5vcmcvMjAwMC9zdmciIHhtbG5zOnY9Imh0dHBzOi8vdmVjdGEuaW8vbmFubyIgd2lkdGg9IjIwIiBoZWlnaHQ9IjIwIiB2aWV3Qm94PSIwIDAgMjAgMjAiPiYjeGE7CTxzdHlsZSB0eXBlPSJ0ZXh0L2NzcyI+JiN4YTsJLnN0MHtmaWxsOiM0Mjg1ZjQ7fSYjeGE7CTwvc3R5bGU+JiN4YTsJPHBhdGggY2xhc3M9InN0MCIgZD0iTTEwIDBhMTAgMTAgMCAxIDAgMTAgMTBoMEExMCAxMCAwIDAgMCAxMCAwem0wIDE4YTggOCAwIDAgMS00LjE4LTEuMThsMy41OC0yLjA3aDB2LTQuNUw1LjUxIDh2NC41MmwyLjc1IDEuNTktMy40NiAyQTggOCAwIDAgMSA2LjA4IDN2NGgwTDEwIDkuMjggMTMuOSA3IDEwIDQuNzcgNy4yNCA2LjM2VjIuNDdhOCA4IDAgMCAxIDEwLjMxIDQuNyA4LjEgOC4xIDAgMCAxIC41MSAyLjgzdi4wN0wxNC40NiA4aDBsLTMuOSAyLjI2djQuNTFsMy45LTIuMjVWOS4zNGwzLjQ1IDJBOCA4IDAgMCAxIDEwIDE4eiIvPiYjeGE7PC9zdmc+;" vertex="1" parent="1">
          <mxGeometry x="524.75" y="524" width="30" height="30" as="geometry" />
        </mxCell>
        <mxCell id="t7HYjAxh3Kxee4GZpd-M-17" value="" style="strokeColor=#dddddd;shadow=1;strokeWidth=1;rounded=1;absoluteArcSize=1;arcSize=2;" vertex="1" parent="1">
          <mxGeometry x="222.5" y="229" width="170" height="60" as="geometry" />
        </mxCell>
        <mxCell id="t7HYjAxh3Kxee4GZpd-M-18" value="&lt;font style=&quot;font-size: 9px;&quot;&gt;&lt;font color=&quot;#000000&quot;&gt;soil-ace-psm-vm-&lt;b&gt;gitlab&lt;/b&gt;&lt;br&gt;&lt;/font&gt;Compute Engine&lt;/font&gt;" style="editableCssRules=.*;html=1;fontColor=#999999;shape=image;verticalLabelPosition=middle;verticalAlign=middle;labelPosition=right;align=left;spacingLeft=20;part=1;points=[];imageAspect=0;image=data:image/svg+xml,PHN2ZyB4bWxucz0iaHR0cDovL3d3dy53My5vcmcvMjAwMC9zdmciIHhtbG5zOnY9Imh0dHBzOi8vdmVjdGEuaW8vbmFubyIgd2lkdGg9IjIwIiBoZWlnaHQ9IjIwIiB2aWV3Qm94PSIwIDAgMjAgMjAiPiYjeGE7CTxzdHlsZSB0eXBlPSJ0ZXh0L2NzcyI+JiN4YTsJLnN0MHtmaWxsOiM0Mjg1ZjQ7fSYjeGE7CS5zdDF7ZmlsbDojNjY5ZGY2O30mI3hhOwkuc3Qye2ZpbGw6I2FlY2JmYTt9JiN4YTsJPC9zdHlsZT4mI3hhOwk8cGF0aCBjbGFzcz0ic3QyIiBkPSJNNyA3aDZ2Nkg3eiIvPiYjeGE7CTxwYXRoIGNsYXNzPSJzdDEiIGQ9Ik05IDBoMnY0SDl6TTUgMGgydjRINXptOCAwaDJ2NGgtMnoiLz4mI3hhOwk8cGF0aCBjbGFzcz0ic3QwIiBkPSJNOSAxNmgydjRIOXptLTQgMGgydjRINXptOCAwaDJ2NGgtMnptMy01VjloNHYyem0wIDR2LTJoNHYyem0wLThWNWg0djJ6Ii8+JiN4YTsJPHBhdGggY2xhc3M9InN0MSIgZD0iTTAgMTFWOWg0djJ6bTAgNHYtMmg0djJ6bTAtOFY1aDR2MnoiLz4mI3hhOwk8cGF0aCBjbGFzcz0ic3QyIiBkPSJNMyAzdjE0aDE0VjN6bTEyIDEySDVWNWgxMHoiLz4mI3hhOwk8cGF0aCBjbGFzcz0ic3QxIiBkPSJNMTAgMTBsLTMgM2g2eiIvPiYjeGE7CTxwYXRoIGNsYXNzPSJzdDAiIGQ9Ik0xMyA3bC0zIDMgMyAzeiIvPiYjeGE7PC9zdmc+;" vertex="1" parent="t7HYjAxh3Kxee4GZpd-M-17">
          <mxGeometry width="30" height="30" relative="1" as="geometry">
            <mxPoint x="15" y="15" as="offset" />
          </mxGeometry>
        </mxCell>
        <mxCell id="t7HYjAxh3Kxee4GZpd-M-24" value="" style="strokeColor=#dddddd;shadow=1;strokeWidth=1;rounded=1;absoluteArcSize=1;arcSize=2;" vertex="1" parent="1">
          <mxGeometry x="521.25" y="394" width="170" height="60" as="geometry" />
        </mxCell>
        <mxCell id="t7HYjAxh3Kxee4GZpd-M-25" value="&lt;font style=&quot;font-size: 9px;&quot;&gt;&lt;font color=&quot;#000000&quot;&gt;soil-ace-psm-gar&lt;/font&gt;&lt;br&gt;Artifact Registry&lt;/font&gt;" style="editableCssRules=.*;html=1;fontColor=#999999;shape=image;verticalLabelPosition=middle;verticalAlign=middle;labelPosition=right;align=left;spacingLeft=20;part=1;points=[];imageAspect=0;image=data:image/svg+xml,PHN2ZyB4bWxucz0iaHR0cDovL3d3dy53My5vcmcvMjAwMC9zdmciIHhtbG5zOnY9Imh0dHBzOi8vdmVjdGEuaW8vbmFubyIgd2lkdGg9IjIxLjk5OTAwMDU0OTMxNjQwNiIgaGVpZ2h0PSIyMC4zOTM5OTkwOTk3MzE0NDUiIHZpZXdCb3g9IjAgMCAyMS45OTkwMDA1NDkzMTY0MDYgMjAuMzkzOTk5MDk5NzMxNDQ1Ij4mI3hhOwk8c3R5bGUgdHlwZT0idGV4dC9jc3MiPiYjeGE7CS5zdDB7ZmlsbDojNDI4NWY0O2ZpbGwtcnVsZTpldmVub2RkfSYjeGE7CTwvc3R5bGU+JiN4YTsJPHBhdGggY2xhc3M9InN0MCIgZD0iTTUgMHYyLjQ1OEwxLjk5OSA0LjE5N3YxMi4wMUw1IDE3LjkzOHYyLjQ1NmwtNS0yLjg4N1YyLjg4NnptMTIgMGw0Ljk5OSAyLjg4NnYxNC42MjFMMTcgMjAuMzk0di0yLjQ1NmwzLTEuNzMxVjQuMTk3bC0zLTEuNzM5em0tNi4wMTYgNi42NzNsMi45NDctMS42NDYtMi45NDctMS42NDYtMi45NDcgMS42NDZ6bTMuMjY4LTEuMDk2bC0yLjg3MSAxLjY3OHYzLjI4N2wyLjg3MS0xLjY3NnpNNy43NzMgOC44NjZsMi44NzEgMS42NzRWNy4yNTZMNy43NzMgNS41Nzd6bS0uMjEyIDMuODc4bDIuODItMS42NDYtMi44Mi0xLjY0Ni0yLjgyIDEuNjQ2em0zLjEzMi0xLjA5OGwtMi44NzEgMS42Nzh2My4yODdsMi44NzEtMS42NzZ6bS02LjI2NCAzLjI4OUw3LjMgMTYuNjA5di0zLjI4NWwtMi44NzEtMS42Nzl6bTEwLjAyOS0yLjE5MWwyLjgyLTEuNjQ2LTIuODItMS42NDYtMi44MiAxLjY0NnptMy4xMzItMS4wOThsLTIuODcxIDEuNjc4djMuMjg3bDIuODcxLTEuNjc2em0tNi4yNjQgMy4yODlsMi44NzEgMS42NzR2LTMuMjg1bC0yLjg3MS0xLjY3OXoiLz4mI3hhOzwvc3ZnPg==;" vertex="1" parent="t7HYjAxh3Kxee4GZpd-M-24">
          <mxGeometry width="30" height="27" relative="1" as="geometry">
            <mxPoint x="15" y="16" as="offset" />
          </mxGeometry>
        </mxCell>
        <mxCell id="t7HYjAxh3Kxee4GZpd-M-29" value="" style="strokeColor=#dddddd;shadow=1;strokeWidth=1;rounded=1;absoluteArcSize=1;arcSize=2;" vertex="1" parent="1">
          <mxGeometry x="900" y="399" width="110" height="60" as="geometry" />
        </mxCell>
        <mxCell id="t7HYjAxh3Kxee4GZpd-M-30" value="Cloud&#xa;DNS" style="editableCssRules=.*;html=1;fontColor=#999999;shape=image;verticalLabelPosition=middle;verticalAlign=middle;labelPosition=right;align=left;spacingLeft=20;part=1;points=[];imageAspect=0;image=data:image/svg+xml,PHN2ZyB4bWxucz0iaHR0cDovL3d3dy53My5vcmcvMjAwMC9zdmciIHhtbG5zOnY9Imh0dHBzOi8vdmVjdGEuaW8vbmFubyIgd2lkdGg9IjIwIiBoZWlnaHQ9IjIwIiB2aWV3Qm94PSIwIDAgMjAgMjAiPiYjeGE7CTxzdHlsZSB0eXBlPSJ0ZXh0L2NzcyI+JiN4YTsJLnN0MHtmaWxsOiM0Mjg1ZjQ7fSYjeGE7CS5zdDF7ZmlsbDojNjY5ZGY2O30mI3hhOwkuc3Qye2ZpbGw6I2FlY2JmYTt9JiN4YTsJLnN0M3tmaWxsOiNmZmY7fSYjeGE7CTwvc3R5bGU+JiN4YTsJPHBhdGggY2xhc3M9InN0MCIgZD0iTTkgNmgydjEwSDl6Ii8+JiN4YTsJPHBhdGggY2xhc3M9InN0MSIgZD0iTTIwIDE3SDB2MmgyMHoiLz4mI3hhOwk8cGF0aCBjbGFzcz0ic3QyIiBkPSJNMTIgMTZIOHY0aDR6TTAgMGgyMHY2SDB6Ii8+JiN4YTsJPHBhdGggY2xhc3M9InN0MSIgZD0iTTEwIDBoMTB2NkgxMHoiLz4mI3hhOwk8cGF0aCBjbGFzcz0ic3QzIiBkPSJNMiAyaDJ2MkgyeiIvPiYjeGE7CTxwYXRoIGNsYXNzPSJzdDIiIGQ9Ik0wIDhoMjB2NkgweiIvPiYjeGE7CTxwYXRoIGNsYXNzPSJzdDEiIGQ9Ik0xMCA4aDEwdjZIMTB6Ii8+JiN4YTsJPHBhdGggY2xhc3M9InN0MyIgZD0iTTIgMTBoMnYySDJ6Ii8+JiN4YTs8L3N2Zz4=;" vertex="1" parent="t7HYjAxh3Kxee4GZpd-M-29">
          <mxGeometry width="30" height="30" relative="1" as="geometry">
            <mxPoint x="15" y="15" as="offset" />
          </mxGeometry>
        </mxCell>
        <mxCell id="t7HYjAxh3Kxee4GZpd-M-35" value="" style="endArrow=blockThin;html=1;rounded=0;dashed=0;strokeColor=#9E9E9E;strokeWidth=2;align=center;verticalAlign=middle;fontFamily=Helvetica;fontSize=12;fontColor=#000000;labelBackgroundColor=none;startFill=1;startSize=4;endFill=1;endSize=4;entryX=1;entryY=0.5;entryDx=0;entryDy=0;" edge="1" parent="1" source="3ZfG_3-aHI2Txs_DAWEP-417" target="t7HYjAxh3Kxee4GZpd-M-29">
          <mxGeometry width="50" height="50" relative="1" as="geometry">
            <mxPoint x="960" y="609" as="sourcePoint" />
            <mxPoint x="990" y="479" as="targetPoint" />
          </mxGeometry>
        </mxCell>
        <mxCell id="t7HYjAxh3Kxee4GZpd-M-36" value="" style="endArrow=blockThin;html=1;rounded=0;dashed=0;strokeColor=#9E9E9E;strokeWidth=2;align=center;verticalAlign=middle;fontFamily=Helvetica;fontSize=12;fontColor=#000000;labelBackgroundColor=none;startFill=1;startSize=4;endFill=1;endSize=4;" edge="1" parent="1" source="t7HYjAxh3Kxee4GZpd-M-29" target="3ZfG_3-aHI2Txs_DAWEP-531">
          <mxGeometry width="50" height="50" relative="1" as="geometry">
            <mxPoint x="915.1100000000001" y="439.78999999999996" as="sourcePoint" />
            <mxPoint x="910" y="239" as="targetPoint" />
          </mxGeometry>
        </mxCell>
        <mxCell id="t7HYjAxh3Kxee4GZpd-M-43" value="" style="edgeStyle=orthogonalEdgeStyle;rounded=0;html=1;labelBackgroundColor=none;startFill=1;startSize=4;endArrow=blockThin;endFill=1;endSize=4;jettySize=auto;orthogonalLoop=1;strokeColor=#4284F3;strokeWidth=2;fontSize=12;fontColor=#000000;align=center;dashed=0;entryX=0.5;entryY=0;entryDx=0;entryDy=0;" edge="1" parent="1" source="3ZfG_3-aHI2Txs_DAWEP-454" target="3ZfG_3-aHI2Txs_DAWEP-523">
          <mxGeometry relative="1" as="geometry">
            <mxPoint x="308" y="439" as="sourcePoint" />
            <mxPoint x="308" y="579" as="targetPoint" />
          </mxGeometry>
        </mxCell>
        <mxCell id="t7HYjAxh3Kxee4GZpd-M-44" value="" style="group" vertex="1" connectable="0" parent="1">
          <mxGeometry x="223" y="479" width="170" height="60" as="geometry" />
        </mxCell>
        <mxCell id="3ZfG_3-aHI2Txs_DAWEP-523" value="Instance Group Template" style="strokeColor=#dddddd;shadow=1;strokeWidth=1;rounded=1;absoluteArcSize=1;arcSize=2;fontSize=9;align=right;" parent="t7HYjAxh3Kxee4GZpd-M-44" vertex="1">
          <mxGeometry width="170" height="60" as="geometry" />
        </mxCell>
        <mxCell id="t7HYjAxh3Kxee4GZpd-M-21" value="" style="sketch=0;html=1;verticalAlign=top;labelPosition=center;verticalLabelPosition=bottom;align=center;spacingTop=-6;fontSize=11;fontStyle=1;fontColor=#999999;shape=image;aspect=fixed;imageAspect=0;image=data:image/svg+xml,PHN2ZyB4bWxucz0iaHR0cDovL3d3dy53My5vcmcvMjAwMC9zdmciIHhtbG5zOnhsaW5rPSJodHRwOi8vd3d3LnczLm9yZy8xOTk5L3hsaW5rIiB4bWxuczp2PSJodHRwczovL3ZlY3RhLmlvL25hbm8iIHdpZHRoPSIxOS41MSIgaGVpZ2h0PSIxOS41IiB2aWV3Qm94PSIwIDAgMTkuNTEgMTkuNSI+JiN4YTsJPHBhdGggZD0iTTE3LjI2IDE3LjgxaC0uN3YtMS41aC43YS43Ni43NiAwIDAgMCAuNzUtLjc1di00LjMxYS43Ni43NiAwIDAgMC0uNzUtLjc1aC0zLjYxVjloMy42MWEyLjI1IDIuMjUgMCAwIDEgMi4yNSAyLjI1djQuMzFhMi4yNSAyLjI1IDAgMCAxLTIuMjUgMi4yNXptLTcuOTUgMGgtNC45di0xLjVoNC45eiIgZmlsbD0iIzQyODVmNCIvPiYjeGE7CTxwYXRoIGZpbGw9IiM2NjlkZjYiIGZpbGwtcnVsZT0iZXZlbm9kZCIgZD0iTTUuODggMTAuNUgyLjI2QTIuMjUgMi4yNSAwIDAgMSAuMDEgOC4yNVYzLjk0YTIuMjUgMi4yNSAwIDAgMSAyLjI1LTIuMjVoMXYxLjVoLTFhLjc1Ljc1IDAgMCAwLS43NS43NXY0LjMxYS43Ni43NiAwIDAgMCAuNzUuNzVoMy42MnoiLz4mI3hhOwk8cGF0aCBmaWxsPSIjNDI4NWY0IiBkPSJNMTUuMDYgMy4xOUg5LjU4di0xLjVoNS40OHoiLz4mI3hhOwk8cGF0aCBmaWxsPSIjYWVjYmZhIiBkPSJNNi4zOSAxLjY5Vi4xOWgtM2ExLjEzIDEuMTMgMCAwIDAtMS4xMyAxLjEydjIuMjVhMS4xMyAxLjEzIDAgMCAwIDEuMTMgMS4xM2gzdi0xLjVIMy43NnYtMS41eiIvPiYjeGE7CTxwYXRoIGZpbGw9IiM2NjlkZjYiIGZpbGwtcnVsZT0iZXZlbm9kZCIgZD0iTTEwLjUxIDEuMzF2Mi4yNWExLjEzIDEuMTMgMCAwIDEtMS4xMiAxLjEzaC0zdi0xLjVoMi42MnYtMS41SDYuMzlWLjE5aDNhMS4xMiAxLjEyIDAgMCAxIDEuMTIgMS4xMnoiLz4mI3hhOwk8cGF0aCBmaWxsPSIjYWVjYmZhIiBkPSJNMTcuMDcgNC44OGEyLjQ0IDIuNDQgMCAxIDEgMi40NC0yLjQ0IDIuNDUgMi40NSAwIDAgMS0yLjQ0IDIuNDR6bTAtMy4zOGEuOTQuOTQgMCAxIDAgLjk0Ljk0Ljk0Ljk0IDAgMCAwLS45NC0uOTR6Ii8+JiN4YTsJPHVzZSB4bGluazpocmVmPSIjQiIgZmlsbD0iIzlhYTBhNiIvPiYjeGE7CTxnIGZpbGw9IiNhZWNiZmEiPiYjeGE7CQk8dXNlIHhsaW5rOmhyZWY9IiNCIi8+JiN4YTsJCTxwYXRoIGQ9Ik0xMy4xMiAxNi4zMnYtMS41aC0zQTEuMTMgMS4xMyAwIDAgMCA5IDE1Ljk1djIuMjVhMS4xMiAxLjEyIDAgMCAwIDEuMTIgMS4xMmgzdi0xLjVIMTAuNXYtMS41eiIvPiYjeGE7CTwvZz4mI3hhOwk8cGF0aCBmaWxsPSIjNjY5ZGY2IiBmaWxsLXJ1bGU9ImV2ZW5vZGQiIGQ9Ik0xNy4yNSAxNS45NXYyLjI1YTEuMTMgMS4xMyAwIDAgMS0xLjEzIDEuMTJoLTN2LTEuNWgyLjY0di0xLjVoLTIuNjR2LTEuNWgzYTEuMTQgMS4xNCAwIDAgMSAxLjEzIDEuMTN6Ii8+JiN4YTsJPHBhdGggZmlsbD0iI2FlY2JmYSIgZD0iTTkuNzYgOVY3LjVoLTNhMS4xMyAxLjEzIDAgMCAwLTEuMTMgMS4xMnYyLjI1QTEuMTMgMS4xMyAwIDAgMCA2Ljc2IDEyaDN2LTEuNUg3LjEzVjl6Ii8+JiN4YTsJPHBhdGggZmlsbD0iIzY2OWRmNiIgZmlsbC1ydWxlPSJldmVub2RkIiBkPSJNMTMuODggOC42MnYyLjI1QTEuMTMgMS4xMyAwIDAgMSAxMi43NiAxMmgtM3YtMS41aDIuNjJWOUg5Ljc2VjcuNWgzYTEuMTIgMS4xMiAwIDAgMSAxLjEyIDEuMTJ6Ii8+JiN4YTsJPGRlZnM+JiN4YTsJCTxwYXRoIGlkPSJCIiBkPSJNMi40NSAxOS41YTIuNDQgMi40NCAwIDEgMSAyLjQzLTIuNDQgMi40NCAyLjQ0IDAgMCAxLTIuNDMgMi40NHptMC0zLjM4YS45NC45NCAwIDEgMCAuOTMuOTQuOTQuOTQgMCAwIDAtLjkzLS45NHoiLz4mI3hhOwk8L2RlZnM+JiN4YTs8L3N2Zz4=;" vertex="1" parent="t7HYjAxh3Kxee4GZpd-M-44">
          <mxGeometry x="17.5" y="14.5" width="31" height="31" as="geometry" />
        </mxCell>
        <mxCell id="t7HYjAxh3Kxee4GZpd-M-47" style="edgeStyle=orthogonalEdgeStyle;rounded=0;html=1;labelBackgroundColor=none;startFill=1;startSize=4;endArrow=blockThin;endFill=1;endSize=4;jettySize=auto;orthogonalLoop=1;strokeColor=#4284F3;strokeWidth=2;fontSize=12;fontColor=#000000;align=center;dashed=0;exitX=1;exitY=0.5;exitDx=0;exitDy=0;" edge="1" parent="1" source="3ZfG_3-aHI2Txs_DAWEP-523" target="3ZfG_3-aHI2Txs_DAWEP-419">
          <mxGeometry relative="1" as="geometry">
            <Array as="points">
              <mxPoint x="430" y="509" />
              <mxPoint x="430" y="559" />
            </Array>
            <mxPoint x="393" y="459" as="sourcePoint" />
            <mxPoint x="530" y="279" as="targetPoint" />
          </mxGeometry>
        </mxCell>
        <mxCell id="t7HYjAxh3Kxee4GZpd-M-51" style="edgeStyle=orthogonalEdgeStyle;rounded=0;html=1;labelBackgroundColor=none;startFill=1;startSize=4;endArrow=blockThin;endFill=1;endSize=4;jettySize=auto;orthogonalLoop=1;strokeColor=#4284F3;strokeWidth=2;fontSize=12;fontColor=#000000;align=center;dashed=0;exitX=1;exitY=0.5;exitDx=0;exitDy=0;" edge="1" parent="1" source="3ZfG_3-aHI2Txs_DAWEP-523" target="3ZfG_3-aHI2Txs_DAWEP-419">
          <mxGeometry relative="1" as="geometry">
            <Array as="points">
              <mxPoint x="430" y="509" />
              <mxPoint x="430" y="649" />
            </Array>
            <mxPoint x="430" y="579" as="sourcePoint" />
            <mxPoint x="502.5" y="479" as="targetPoint" />
          </mxGeometry>
        </mxCell>
        <mxCell id="t7HYjAxh3Kxee4GZpd-M-40" value="6" style="shape=ellipse;fillColor=#ffffff;strokeColor=#BDBDBD;strokeWidth=2;shadow=0;gradientColor=none;fontColor=#757575;align=center;html=1;fontStyle=1;spacingTop=-1;" vertex="1" parent="1">
          <mxGeometry x="420" y="494" width="20" height="20" as="geometry" />
        </mxCell>
        <mxCell id="t7HYjAxh3Kxee4GZpd-M-55" value="" style="edgeStyle=orthogonalEdgeStyle;rounded=0;html=1;labelBackgroundColor=none;startFill=1;startSize=4;endArrow=blockThin;endFill=1;endSize=4;jettySize=auto;orthogonalLoop=1;strokeColor=#4284F3;strokeWidth=2;fontSize=12;fontColor=#000000;align=center;dashed=0;exitX=1;exitY=0.5;exitDx=0;exitDy=0;entryX=0;entryY=0.5;entryDx=0;entryDy=0;" edge="1" parent="1" source="3ZfG_3-aHI2Txs_DAWEP-521" target="t7HYjAxh3Kxee4GZpd-M-24">
          <mxGeometry relative="1" as="geometry">
            <Array as="points">
              <mxPoint x="420" y="387" />
              <mxPoint x="420" y="424" />
            </Array>
            <mxPoint x="364.11" y="410.97" as="sourcePoint" />
            <mxPoint x="492.86" y="230.97" as="targetPoint" />
          </mxGeometry>
        </mxCell>
        <mxCell id="3ZfG_3-aHI2Txs_DAWEP-455" value="4" style="shape=ellipse;fillColor=#ffffff;strokeColor=#BDBDBD;strokeWidth=2;shadow=0;gradientColor=none;fontColor=#757575;align=center;html=1;fontStyle=1;spacingTop=-1;" parent="1" vertex="1">
          <mxGeometry x="420" y="414" width="20" height="20" as="geometry" />
        </mxCell>
        <mxCell id="t7HYjAxh3Kxee4GZpd-M-59" value="" style="edgeStyle=orthogonalEdgeStyle;rounded=0;orthogonalLoop=1;jettySize=auto;html=1;entryX=0.5;entryY=0;entryDx=0;entryDy=0;exitX=0.5;exitY=1;exitDx=0;exitDy=0;" edge="1" parent="1" source="t7HYjAxh3Kxee4GZpd-M-24" target="t7HYjAxh3Kxee4GZpd-M-11">
          <mxGeometry relative="1" as="geometry">
            <mxPoint x="755" y="883.51" as="sourcePoint" />
            <mxPoint x="1090.7428571428572" y="729.51" as="targetPoint" />
          </mxGeometry>
        </mxCell>
        <mxCell id="t7HYjAxh3Kxee4GZpd-M-62" value="" style="endArrow=blockThin;html=1;rounded=0;dashed=0;strokeColor=#9E9E9E;strokeWidth=2;align=center;verticalAlign=middle;fontFamily=Helvetica;fontSize=12;fontColor=#000000;labelBackgroundColor=none;startFill=1;startSize=4;endFill=1;endSize=4;entryX=1;entryY=0.5;entryDx=0;entryDy=0;exitX=0;exitY=0.5;exitDx=0;exitDy=0;" edge="1" parent="1" source="3ZfG_3-aHI2Txs_DAWEP-531" target="t7HYjAxh3Kxee4GZpd-M-11">
          <mxGeometry width="50" height="50" relative="1" as="geometry">
            <mxPoint x="856" y="315" as="sourcePoint" />
            <mxPoint x="706" y="395" as="targetPoint" />
          </mxGeometry>
        </mxCell>
        <mxCell id="t7HYjAxh3Kxee4GZpd-M-65" value="Users" style="rounded=1;absoluteArcSize=1;arcSize=2;html=1;strokeColor=none;gradientColor=none;shadow=0;dashed=0;strokeColor=none;fontSize=12;fontColor=#9E9E9E;align=left;verticalAlign=top;spacing=10;spacingTop=-4;fillColor=#F1F8E9;" vertex="1" parent="1">
          <mxGeometry x="1060" y="394" width="90" height="120" as="geometry" />
        </mxCell>
        <mxCell id="t7HYjAxh3Kxee4GZpd-M-68" value="" style="strokeColor=#dddddd;fillColor=#ffffff;shadow=1;strokeWidth=1;rounded=1;absoluteArcSize=1;arcSize=2;labelPosition=center;verticalLabelPosition=middle;align=center;verticalAlign=bottom;spacingLeft=0;fontColor=#999999;fontSize=12;whiteSpace=wrap;spacingBottom=2;html=1;" vertex="1" parent="1">
          <mxGeometry x="1070" y="421.5" width="70" height="65" as="geometry" />
        </mxCell>
        <mxCell id="t7HYjAxh3Kxee4GZpd-M-69" value="" style="dashed=0;connectable=0;html=1;fillColor=#757575;strokeColor=none;shape=mxgraph.gcp2.mobile_devices;part=1;" vertex="1" parent="t7HYjAxh3Kxee4GZpd-M-68">
          <mxGeometry x="0.5" width="50" height="36.5" relative="1" as="geometry">
            <mxPoint x="-25" y="16.75" as="offset" />
          </mxGeometry>
        </mxCell>
        <mxCell id="t7HYjAxh3Kxee4GZpd-M-70" value="" style="endArrow=blockThin;html=1;rounded=0;dashed=0;strokeColor=#9E9E9E;strokeWidth=2;align=center;verticalAlign=middle;fontFamily=Helvetica;fontSize=12;fontColor=#000000;labelBackgroundColor=none;startFill=1;startSize=4;endFill=1;endSize=4;entryX=1;entryY=0.5;entryDx=0;entryDy=0;exitX=0;exitY=0.5;exitDx=0;exitDy=0;" edge="1" parent="1" source="t7HYjAxh3Kxee4GZpd-M-65" target="t7HYjAxh3Kxee4GZpd-M-29">
          <mxGeometry width="50" height="50" relative="1" as="geometry">
            <mxPoint x="1067" y="279" as="sourcePoint" />
            <mxPoint x="980" y="426" as="targetPoint" />
          </mxGeometry>
        </mxCell>
        <mxCell id="t7HYjAxh3Kxee4GZpd-M-78" value="DEV" style="rounded=1;absoluteArcSize=1;arcSize=2;html=1;strokeColor=#82b366;shadow=0;dashed=0;strokeColor=none;fontSize=12;align=left;verticalAlign=top;spacing=10;spacingTop=-4;fillColor=#d5e8d4;" vertex="1" parent="1">
          <mxGeometry x="497.5" y="139" width="442.5" height="220" as="geometry" />
        </mxCell>
        <mxCell id="t7HYjAxh3Kxee4GZpd-M-72" value="" style="strokeColor=#dddddd;shadow=1;strokeWidth=1;rounded=1;absoluteArcSize=1;arcSize=2;" vertex="1" parent="1">
          <mxGeometry x="521.25" y="169" width="170" height="60" as="geometry" />
        </mxCell>
        <mxCell id="t7HYjAxh3Kxee4GZpd-M-73" value="&lt;font style=&quot;font-size: 9px;&quot;&gt;&lt;span style=&quot;color: rgb(0, 0, 0);&quot;&gt;soil-ace-vm-&lt;b&gt;aiserv&lt;/b&gt;&lt;/span&gt;&lt;br&gt;Compute Engine&lt;/font&gt;" style="editableCssRules=.*;html=1;fontColor=#999999;shape=image;verticalLabelPosition=middle;verticalAlign=middle;labelPosition=right;align=left;spacingLeft=20;part=1;points=[];imageAspect=0;image=data:image/svg+xml,PHN2ZyB4bWxucz0iaHR0cDovL3d3dy53My5vcmcvMjAwMC9zdmciIHhtbG5zOnY9Imh0dHBzOi8vdmVjdGEuaW8vbmFubyIgd2lkdGg9IjIwIiBoZWlnaHQ9IjIwIiB2aWV3Qm94PSIwIDAgMjAgMjAiPiYjeGE7CTxzdHlsZSB0eXBlPSJ0ZXh0L2NzcyI+JiN4YTsJLnN0MHtmaWxsOiM0Mjg1ZjQ7fSYjeGE7CS5zdDF7ZmlsbDojNjY5ZGY2O30mI3hhOwkuc3Qye2ZpbGw6I2FlY2JmYTt9JiN4YTsJPC9zdHlsZT4mI3hhOwk8cGF0aCBjbGFzcz0ic3QyIiBkPSJNNyA3aDZ2Nkg3eiIvPiYjeGE7CTxwYXRoIGNsYXNzPSJzdDEiIGQ9Ik05IDBoMnY0SDl6TTUgMGgydjRINXptOCAwaDJ2NGgtMnoiLz4mI3hhOwk8cGF0aCBjbGFzcz0ic3QwIiBkPSJNOSAxNmgydjRIOXptLTQgMGgydjRINXptOCAwaDJ2NGgtMnptMy01VjloNHYyem0wIDR2LTJoNHYyem0wLThWNWg0djJ6Ii8+JiN4YTsJPHBhdGggY2xhc3M9InN0MSIgZD0iTTAgMTFWOWg0djJ6bTAgNHYtMmg0djJ6bTAtOFY1aDR2MnoiLz4mI3hhOwk8cGF0aCBjbGFzcz0ic3QyIiBkPSJNMyAzdjE0aDE0VjN6bTEyIDEySDVWNWgxMHoiLz4mI3hhOwk8cGF0aCBjbGFzcz0ic3QxIiBkPSJNMTAgMTBsLTMgM2g2eiIvPiYjeGE7CTxwYXRoIGNsYXNzPSJzdDAiIGQ9Ik0xMyA3bC0zIDMgMyAzeiIvPiYjeGE7PC9zdmc+;" vertex="1" parent="t7HYjAxh3Kxee4GZpd-M-72">
          <mxGeometry width="30" height="30" relative="1" as="geometry">
            <mxPoint x="15" y="15" as="offset" />
          </mxGeometry>
        </mxCell>
        <mxCell id="t7HYjAxh3Kxee4GZpd-M-74" value="" style="strokeColor=#dddddd;shadow=1;strokeWidth=1;rounded=1;absoluteArcSize=1;arcSize=2;" vertex="1" parent="1">
          <mxGeometry x="521.25" y="259" width="170" height="60" as="geometry" />
        </mxCell>
        <mxCell id="t7HYjAxh3Kxee4GZpd-M-75" value="&lt;font style=&quot;font-size: 9px;&quot;&gt;&lt;span style=&quot;color: rgb(0, 0, 0);&quot;&gt;soil-ace-vm-&lt;b&gt;dev-app1&lt;/b&gt;&lt;/span&gt;&lt;br&gt;Compute Engine&lt;/font&gt;" style="editableCssRules=.*;html=1;fontColor=#999999;shape=image;verticalLabelPosition=middle;verticalAlign=middle;labelPosition=right;align=left;spacingLeft=20;part=1;points=[];imageAspect=0;image=data:image/svg+xml,PHN2ZyB4bWxucz0iaHR0cDovL3d3dy53My5vcmcvMjAwMC9zdmciIHhtbG5zOnY9Imh0dHBzOi8vdmVjdGEuaW8vbmFubyIgd2lkdGg9IjIwIiBoZWlnaHQ9IjIwIiB2aWV3Qm94PSIwIDAgMjAgMjAiPiYjeGE7CTxzdHlsZSB0eXBlPSJ0ZXh0L2NzcyI+JiN4YTsJLnN0MHtmaWxsOiM0Mjg1ZjQ7fSYjeGE7CS5zdDF7ZmlsbDojNjY5ZGY2O30mI3hhOwkuc3Qye2ZpbGw6I2FlY2JmYTt9JiN4YTsJPC9zdHlsZT4mI3hhOwk8cGF0aCBjbGFzcz0ic3QyIiBkPSJNNyA3aDZ2Nkg3eiIvPiYjeGE7CTxwYXRoIGNsYXNzPSJzdDEiIGQ9Ik05IDBoMnY0SDl6TTUgMGgydjRINXptOCAwaDJ2NGgtMnoiLz4mI3hhOwk8cGF0aCBjbGFzcz0ic3QwIiBkPSJNOSAxNmgydjRIOXptLTQgMGgydjRINXptOCAwaDJ2NGgtMnptMy01VjloNHYyem0wIDR2LTJoNHYyem0wLThWNWg0djJ6Ii8+JiN4YTsJPHBhdGggY2xhc3M9InN0MSIgZD0iTTAgMTFWOWg0djJ6bTAgNHYtMmg0djJ6bTAtOFY1aDR2MnoiLz4mI3hhOwk8cGF0aCBjbGFzcz0ic3QyIiBkPSJNMyAzdjE0aDE0VjN6bTEyIDEySDVWNWgxMHoiLz4mI3hhOwk8cGF0aCBjbGFzcz0ic3QxIiBkPSJNMTAgMTBsLTMgM2g2eiIvPiYjeGE7CTxwYXRoIGNsYXNzPSJzdDAiIGQ9Ik0xMyA3bC0zIDMgMyAzeiIvPiYjeGE7PC9zdmc+;" vertex="1" parent="t7HYjAxh3Kxee4GZpd-M-74">
          <mxGeometry width="30" height="30" relative="1" as="geometry">
            <mxPoint x="15" y="15" as="offset" />
          </mxGeometry>
        </mxCell>
        <mxCell id="t7HYjAxh3Kxee4GZpd-M-76" style="edgeStyle=orthogonalEdgeStyle;rounded=0;html=1;labelBackgroundColor=none;startFill=1;startSize=4;endArrow=blockThin;endFill=1;endSize=4;jettySize=auto;orthogonalLoop=1;strokeColor=#4284F3;strokeWidth=2;fontSize=12;fontColor=#000000;align=center;dashed=0;exitX=1;exitY=0.5;exitDx=0;exitDy=0;entryX=0;entryY=0.5;entryDx=0;entryDy=0;" edge="1" parent="1" target="t7HYjAxh3Kxee4GZpd-M-72">
          <mxGeometry relative="1" as="geometry">
            <Array as="points">
              <mxPoint x="430" y="259" />
              <mxPoint x="430" y="199" />
            </Array>
            <mxPoint x="393" y="259" as="sourcePoint" />
            <mxPoint x="503" y="309" as="targetPoint" />
          </mxGeometry>
        </mxCell>
        <mxCell id="t7HYjAxh3Kxee4GZpd-M-77" style="edgeStyle=orthogonalEdgeStyle;rounded=0;html=1;labelBackgroundColor=none;startFill=1;startSize=4;endArrow=blockThin;endFill=1;endSize=4;jettySize=auto;orthogonalLoop=1;strokeColor=#4284F3;strokeWidth=2;fontSize=12;fontColor=#000000;align=center;dashed=0;exitX=1;exitY=0.5;exitDx=0;exitDy=0;entryX=0;entryY=0.5;entryDx=0;entryDy=0;" edge="1" parent="1" target="t7HYjAxh3Kxee4GZpd-M-74">
          <mxGeometry relative="1" as="geometry">
            <Array as="points">
              <mxPoint x="430" y="259" />
              <mxPoint x="430" y="289" />
            </Array>
            <mxPoint x="393" y="259" as="sourcePoint" />
            <mxPoint x="510" y="285" as="targetPoint" />
          </mxGeometry>
        </mxCell>
        <mxCell id="t7HYjAxh3Kxee4GZpd-M-81" value="" style="shape=mxgraph.gcp2.doubleRect;strokeColor=#dddddd;shadow=1;strokeWidth=1;rounded=1;absoluteArcSize=1;arcSize=2;" vertex="1" parent="1">
          <mxGeometry x="770" y="562.5" width="160" height="68" as="geometry" />
        </mxCell>
        <mxCell id="t7HYjAxh3Kxee4GZpd-M-82" value="&lt;font color=&quot;#000000&quot;&gt;soil-ace-db-prd&lt;/font&gt;&lt;br&gt;Cloud SQL" style="editableCssRules=.*;html=1;fontColor=#999999;shape=image;verticalLabelPosition=middle;verticalAlign=middle;labelPosition=right;align=left;spacingLeft=20;part=1;points=[];imageAspect=0;image=data:image/svg+xml,PHN2ZyB4bWxucz0iaHR0cDovL3d3dy53My5vcmcvMjAwMC9zdmciIHhtbG5zOnY9Imh0dHBzOi8vdmVjdGEuaW8vbmFubyIgd2lkdGg9IjE0LjY1OTk5OTg0NzQxMjExIiBoZWlnaHQ9IjIwIiB2aWV3Qm94PSIwIDAgMTQuNjU5OTk5ODQ3NDEyMTEgMjAiPiYjeGE7CTxzdHlsZSB0eXBlPSJ0ZXh0L2NzcyI+JiN4YTsJLnN0MHtmaWxsOiM0Mjg1ZjQ7fSYjeGE7CS5zdDF7ZmlsbDojNjY5ZGY2O30mI3hhOwkuc3Qye2ZpbGw6I2FlY2JmYTt9JiN4YTsJPC9zdHlsZT4mI3hhOwk8c3R5bGU+JiN4YTsJCS5Ee2ZpbGwtcnVsZTpldmVub2RkfSYjeGE7CTwvc3R5bGU+JiN4YTsJPHBhdGggZD0iTTcuMzMgMTUuMzV2LTMuMDFMMCA4LjQ0djMuMDF6bTAgNC42NXYtMy4wMUwwIDEzLjA5djMuMDF6IiBjbGFzcz0ic3QyIEQiLz4mI3hhOwk8cGF0aCBkPSJNMTQuNjYgOC40NGwtNy4zMyAzLjl2My4wMWw3LjMzLTMuOXptMCA0LjY1bC03LjMzIDMuOVYyMGw3LjMzLTMuOXoiIGNsYXNzPSJzdDEgRCIvPiYjeGE7CTxwYXRoIGQ9Ik03LjMzIDB2My4wMWw3LjMzIDMuOVYzLjl6IiBjbGFzcz0ic3QwIEQiLz4mI3hhOwk8cGF0aCBkPSJNMCA2LjkxbDcuMzMtMy45VjBMMCAzLjl6IiBjbGFzcz0iRCBzdDEiLz4mI3hhOwk8cGF0aCBkPSJNNy4zMyAxMC43OVY3Ljc3TDAgMy44N3YzLjAyeiIgY2xhc3M9IkQgc3QyIi8+JiN4YTsJPHBhdGggZD0iTTE0LjY2IDMuODdsLTcuMzMgMy45djMuMDJsNy4zMy0zLjl6IiBjbGFzcz0iRCBzdDEiLz4mI3hhOzwvc3ZnPg==;" vertex="1" parent="t7HYjAxh3Kxee4GZpd-M-81">
          <mxGeometry width="22" height="30" relative="1" as="geometry">
            <mxPoint x="19" y="15" as="offset" />
          </mxGeometry>
        </mxCell>
        <mxCell id="t7HYjAxh3Kxee4GZpd-M-83" value="" style="endArrow=blockThin;html=1;rounded=0;dashed=0;strokeColor=#9E9E9E;strokeWidth=2;align=center;verticalAlign=middle;fontFamily=Helvetica;fontSize=12;fontColor=#000000;labelBackgroundColor=none;startFill=1;startSize=4;endFill=1;endSize=4;entryX=1;entryY=0.5;entryDx=0;entryDy=0;exitX=0;exitY=0.5;exitDx=0;exitDy=0;" edge="1" parent="1" source="3ZfG_3-aHI2Txs_DAWEP-531" target="t7HYjAxh3Kxee4GZpd-M-74">
          <mxGeometry width="50" height="50" relative="1" as="geometry">
            <mxPoint x="750" y="439" as="sourcePoint" />
            <mxPoint x="710" y="558" as="targetPoint" />
          </mxGeometry>
        </mxCell>
        <mxCell id="t7HYjAxh3Kxee4GZpd-M-87" value="3" style="shape=ellipse;fillColor=#ffffff;strokeColor=#BDBDBD;strokeWidth=2;shadow=0;gradientColor=none;fontColor=#757575;align=center;html=1;fontStyle=1;spacingTop=-1;" vertex="1" parent="1">
          <mxGeometry x="298" y="309" width="20" height="20" as="geometry" />
        </mxCell>
        <mxCell id="t7HYjAxh3Kxee4GZpd-M-91" value="" style="shape=mxgraph.gcp2.doubleRect;strokeColor=#dddddd;shadow=1;strokeWidth=1;rounded=1;absoluteArcSize=1;arcSize=2;" vertex="1" parent="1">
          <mxGeometry x="770" y="210" width="160" height="68" as="geometry" />
        </mxCell>
        <mxCell id="t7HYjAxh3Kxee4GZpd-M-92" value="&lt;font color=&quot;#000000&quot;&gt;soil-ace-db&lt;/font&gt;&lt;br&gt;Cloud SQL" style="editableCssRules=.*;html=1;fontColor=#999999;shape=image;verticalLabelPosition=middle;verticalAlign=middle;labelPosition=right;align=left;spacingLeft=20;part=1;points=[];imageAspect=0;image=data:image/svg+xml,PHN2ZyB4bWxucz0iaHR0cDovL3d3dy53My5vcmcvMjAwMC9zdmciIHhtbG5zOnY9Imh0dHBzOi8vdmVjdGEuaW8vbmFubyIgd2lkdGg9IjE0LjY1OTk5OTg0NzQxMjExIiBoZWlnaHQ9IjIwIiB2aWV3Qm94PSIwIDAgMTQuNjU5OTk5ODQ3NDEyMTEgMjAiPiYjeGE7CTxzdHlsZSB0eXBlPSJ0ZXh0L2NzcyI+JiN4YTsJLnN0MHtmaWxsOiM0Mjg1ZjQ7fSYjeGE7CS5zdDF7ZmlsbDojNjY5ZGY2O30mI3hhOwkuc3Qye2ZpbGw6I2FlY2JmYTt9JiN4YTsJPC9zdHlsZT4mI3hhOwk8c3R5bGU+JiN4YTsJCS5Ee2ZpbGwtcnVsZTpldmVub2RkfSYjeGE7CTwvc3R5bGU+JiN4YTsJPHBhdGggZD0iTTcuMzMgMTUuMzV2LTMuMDFMMCA4LjQ0djMuMDF6bTAgNC42NXYtMy4wMUwwIDEzLjA5djMuMDF6IiBjbGFzcz0ic3QyIEQiLz4mI3hhOwk8cGF0aCBkPSJNMTQuNjYgOC40NGwtNy4zMyAzLjl2My4wMWw3LjMzLTMuOXptMCA0LjY1bC03LjMzIDMuOVYyMGw3LjMzLTMuOXoiIGNsYXNzPSJzdDEgRCIvPiYjeGE7CTxwYXRoIGQ9Ik03LjMzIDB2My4wMWw3LjMzIDMuOVYzLjl6IiBjbGFzcz0ic3QwIEQiLz4mI3hhOwk8cGF0aCBkPSJNMCA2LjkxbDcuMzMtMy45VjBMMCAzLjl6IiBjbGFzcz0iRCBzdDEiLz4mI3hhOwk8cGF0aCBkPSJNNy4zMyAxMC43OVY3Ljc3TDAgMy44N3YzLjAyeiIgY2xhc3M9IkQgc3QyIi8+JiN4YTsJPHBhdGggZD0iTTE0LjY2IDMuODdsLTcuMzMgMy45djMuMDJsNy4zMy0zLjl6IiBjbGFzcz0iRCBzdDEiLz4mI3hhOzwvc3ZnPg==;" vertex="1" parent="t7HYjAxh3Kxee4GZpd-M-91">
          <mxGeometry width="22" height="30" relative="1" as="geometry">
            <mxPoint x="19" y="15" as="offset" />
          </mxGeometry>
        </mxCell>
        <mxCell id="t7HYjAxh3Kxee4GZpd-M-93" value="" style="endArrow=classic;startArrow=classic;html=1;rounded=0;entryX=0;entryY=0.5;entryDx=0;entryDy=0;exitX=1;exitY=0.5;exitDx=0;exitDy=0;" edge="1" parent="1" source="t7HYjAxh3Kxee4GZpd-M-11" target="t7HYjAxh3Kxee4GZpd-M-81">
          <mxGeometry width="50" height="50" relative="1" as="geometry">
            <mxPoint x="700" y="573" as="sourcePoint" />
            <mxPoint x="750" y="523" as="targetPoint" />
          </mxGeometry>
        </mxCell>
        <mxCell id="t7HYjAxh3Kxee4GZpd-M-94" value="" style="endArrow=classic;startArrow=classic;html=1;rounded=0;entryX=0;entryY=0.5;entryDx=0;entryDy=0;exitX=1;exitY=0.5;exitDx=0;exitDy=0;" edge="1" parent="1" source="3ZfG_3-aHI2Txs_DAWEP-527" target="t7HYjAxh3Kxee4GZpd-M-81">
          <mxGeometry width="50" height="50" relative="1" as="geometry">
            <mxPoint x="710" y="558" as="sourcePoint" />
            <mxPoint x="780" y="607" as="targetPoint" />
          </mxGeometry>
        </mxCell>
        <mxCell id="t7HYjAxh3Kxee4GZpd-M-95" value="" style="edgeStyle=orthogonalEdgeStyle;rounded=0;html=1;labelBackgroundColor=none;startFill=1;startSize=4;endArrow=blockThin;endFill=1;endSize=4;jettySize=auto;orthogonalLoop=1;strokeColor=#4284F3;strokeWidth=2;fontSize=12;fontColor=#000000;align=center;dashed=0;entryX=0.5;entryY=0;entryDx=0;entryDy=0;" edge="1" parent="1" source="3ZfG_3-aHI2Txs_DAWEP-521" target="3ZfG_3-aHI2Txs_DAWEP-454">
          <mxGeometry relative="1" as="geometry">
            <mxPoint x="308" y="417" as="sourcePoint" />
            <mxPoint x="308" y="479" as="targetPoint" />
          </mxGeometry>
        </mxCell>
        <mxCell id="3ZfG_3-aHI2Txs_DAWEP-454" value="5" style="shape=ellipse;fillColor=#ffffff;strokeColor=#BDBDBD;strokeWidth=2;shadow=0;gradientColor=none;fontColor=#757575;align=center;html=1;fontStyle=1;spacingTop=-1;" parent="1" vertex="1">
          <mxGeometry x="298" y="434" width="20" height="20" as="geometry" />
        </mxCell>
        <mxCell id="t7HYjAxh3Kxee4GZpd-M-96" value="" style="endArrow=classic;startArrow=classic;html=1;rounded=0;entryX=0;entryY=0.5;entryDx=0;entryDy=0;exitX=1;exitY=0.5;exitDx=0;exitDy=0;" edge="1" parent="1" source="t7HYjAxh3Kxee4GZpd-M-72" target="t7HYjAxh3Kxee4GZpd-M-91">
          <mxGeometry width="50" height="50" relative="1" as="geometry">
            <mxPoint x="700" y="199" as="sourcePoint" />
            <mxPoint x="770" y="248" as="targetPoint" />
          </mxGeometry>
        </mxCell>
        <mxCell id="t7HYjAxh3Kxee4GZpd-M-97" value="" style="endArrow=classic;startArrow=classic;html=1;rounded=0;entryX=0;entryY=0.5;entryDx=0;entryDy=0;exitX=1;exitY=0.5;exitDx=0;exitDy=0;" edge="1" parent="1" source="t7HYjAxh3Kxee4GZpd-M-74" target="t7HYjAxh3Kxee4GZpd-M-91">
          <mxGeometry width="50" height="50" relative="1" as="geometry">
            <mxPoint x="700" y="296" as="sourcePoint" />
            <mxPoint x="770" y="248" as="targetPoint" />
          </mxGeometry>
        </mxCell>
        <mxCell id="t7HYjAxh3Kxee4GZpd-M-98" value="" style="strokeColor=#dddddd;shadow=1;strokeWidth=1;rounded=1;absoluteArcSize=1;arcSize=2;" vertex="1" parent="1">
          <mxGeometry x="223" y="139" width="170" height="60" as="geometry" />
        </mxCell>
        <mxCell id="t7HYjAxh3Kxee4GZpd-M-99" value="&lt;font style=&quot;font-size: 9px;&quot;&gt;&lt;font color=&quot;#000000&quot;&gt;soil-ace-psm-vm-&lt;b&gt;bastion&lt;/b&gt;&lt;br&gt;&lt;/font&gt;Compute Engine&lt;/font&gt;" style="editableCssRules=.*;html=1;fontColor=#999999;shape=image;verticalLabelPosition=middle;verticalAlign=middle;labelPosition=right;align=left;spacingLeft=20;part=1;points=[];imageAspect=0;image=data:image/svg+xml,PHN2ZyB4bWxucz0iaHR0cDovL3d3dy53My5vcmcvMjAwMC9zdmciIHhtbG5zOnY9Imh0dHBzOi8vdmVjdGEuaW8vbmFubyIgd2lkdGg9IjIwIiBoZWlnaHQ9IjIwIiB2aWV3Qm94PSIwIDAgMjAgMjAiPiYjeGE7CTxzdHlsZSB0eXBlPSJ0ZXh0L2NzcyI+JiN4YTsJLnN0MHtmaWxsOiM0Mjg1ZjQ7fSYjeGE7CS5zdDF7ZmlsbDojNjY5ZGY2O30mI3hhOwkuc3Qye2ZpbGw6I2FlY2JmYTt9JiN4YTsJPC9zdHlsZT4mI3hhOwk8cGF0aCBjbGFzcz0ic3QyIiBkPSJNNyA3aDZ2Nkg3eiIvPiYjeGE7CTxwYXRoIGNsYXNzPSJzdDEiIGQ9Ik05IDBoMnY0SDl6TTUgMGgydjRINXptOCAwaDJ2NGgtMnoiLz4mI3hhOwk8cGF0aCBjbGFzcz0ic3QwIiBkPSJNOSAxNmgydjRIOXptLTQgMGgydjRINXptOCAwaDJ2NGgtMnptMy01VjloNHYyem0wIDR2LTJoNHYyem0wLThWNWg0djJ6Ii8+JiN4YTsJPHBhdGggY2xhc3M9InN0MSIgZD0iTTAgMTFWOWg0djJ6bTAgNHYtMmg0djJ6bTAtOFY1aDR2MnoiLz4mI3hhOwk8cGF0aCBjbGFzcz0ic3QyIiBkPSJNMyAzdjE0aDE0VjN6bTEyIDEySDVWNWgxMHoiLz4mI3hhOwk8cGF0aCBjbGFzcz0ic3QxIiBkPSJNMTAgMTBsLTMgM2g2eiIvPiYjeGE7CTxwYXRoIGNsYXNzPSJzdDAiIGQ9Ik0xMyA3bC0zIDMgMyAzeiIvPiYjeGE7PC9zdmc+;" vertex="1" parent="t7HYjAxh3Kxee4GZpd-M-98">
          <mxGeometry width="30" height="30" relative="1" as="geometry">
            <mxPoint x="15" y="15" as="offset" />
          </mxGeometry>
        </mxCell>
        <mxCell id="t7HYjAxh3Kxee4GZpd-M-100" value="" style="endArrow=blockThin;html=1;rounded=0;dashed=0;strokeColor=#9E9E9E;strokeWidth=2;align=center;verticalAlign=middle;fontFamily=Helvetica;fontSize=12;fontColor=#000000;labelBackgroundColor=none;startFill=1;startSize=4;endFill=1;endSize=4;entryX=0;entryY=0.5;entryDx=0;entryDy=0;exitX=1;exitY=0.5;exitDx=0;exitDy=0;" edge="1" parent="1" source="3ZfG_3-aHI2Txs_DAWEP-421" target="t7HYjAxh3Kxee4GZpd-M-98">
          <mxGeometry width="50" height="50" relative="1" as="geometry">
            <mxPoint x="132.5" y="338" as="sourcePoint" />
            <mxPoint x="82.5" y="404" as="targetPoint" />
          </mxGeometry>
        </mxCell>
        <mxCell id="t7HYjAxh3Kxee4GZpd-M-101" value="" style="endArrow=blockThin;html=1;rounded=0;dashed=0;strokeColor=#9E9E9E;strokeWidth=2;align=center;verticalAlign=middle;fontFamily=Helvetica;fontSize=12;fontColor=#000000;labelBackgroundColor=none;startFill=1;startSize=4;endFill=1;endSize=4;entryX=0;entryY=0.5;entryDx=0;entryDy=0;exitX=1;exitY=0.5;exitDx=0;exitDy=0;" edge="1" parent="1" source="t7HYjAxh3Kxee4GZpd-M-98" target="t7HYjAxh3Kxee4GZpd-M-72">
          <mxGeometry width="50" height="50" relative="1" as="geometry">
            <mxPoint x="420" y="60" as="sourcePoint" />
            <mxPoint x="370" y="126" as="targetPoint" />
          </mxGeometry>
        </mxCell>
        <mxCell id="t7HYjAxh3Kxee4GZpd-M-102" value="" style="endArrow=blockThin;html=1;rounded=0;dashed=0;strokeColor=#9E9E9E;strokeWidth=2;align=center;verticalAlign=middle;fontFamily=Helvetica;fontSize=12;fontColor=#000000;labelBackgroundColor=none;startFill=1;startSize=4;endFill=1;endSize=4;entryX=0;entryY=0.5;entryDx=0;entryDy=0;exitX=1;exitY=0.5;exitDx=0;exitDy=0;" edge="1" parent="1" source="t7HYjAxh3Kxee4GZpd-M-98" target="t7HYjAxh3Kxee4GZpd-M-74">
          <mxGeometry width="50" height="50" relative="1" as="geometry">
            <mxPoint x="403" y="179" as="sourcePoint" />
            <mxPoint x="531" y="209" as="targetPoint" />
          </mxGeometry>
        </mxCell>
        <mxCell id="t7HYjAxh3Kxee4GZpd-M-106" value="" style="endArrow=classic;startArrow=classic;html=1;rounded=0;entryX=0.5;entryY=1;entryDx=0;entryDy=0;exitX=0.5;exitY=0;exitDx=0;exitDy=0;" edge="1" parent="1" source="3ZfG_3-aHI2Txs_DAWEP-527" target="t7HYjAxh3Kxee4GZpd-M-11">
          <mxGeometry width="50" height="50" relative="1" as="geometry">
            <mxPoint x="900" y="678.9957446808515" as="sourcePoint" />
            <mxPoint x="740" y="650.4" as="targetPoint" />
          </mxGeometry>
        </mxCell>
        <mxCell id="t7HYjAxh3Kxee4GZpd-M-107" value="" style="endArrow=classic;startArrow=classic;html=1;rounded=0;entryX=0.5;entryY=1;entryDx=0;entryDy=0;exitX=0.5;exitY=0;exitDx=0;exitDy=0;" edge="1" parent="1">
          <mxGeometry width="50" height="50" relative="1" as="geometry">
            <mxPoint x="604.58" y="263.5" as="sourcePoint" />
            <mxPoint x="604.58" y="234.5" as="targetPoint" />
          </mxGeometry>
        </mxCell>
        <mxCell id="t7HYjAxh3Kxee4GZpd-M-108" value="" style="shape=image;verticalLabelPosition=bottom;labelBackgroundColor=default;verticalAlign=top;aspect=fixed;imageAspect=0;image=data:image/png,iVBORw0KGgoAAAANSUhEUgAAATYAAAAnCAYAAAHyRlS1AAAAAXNSR0IArs4c6QAAAARnQU1BAACxjwv8YQUAAAAJcEhZcwAAFxEAABcRAcom8z8AABjuSURBVHhe7Z0JcF7Vdccf3ZK2hO4b3deke4njJbYl21psecM7xhsGg12XLWlSaNoGnKVNwQQ7YGyXQEunbptOpjOkmWmg0AHcuIBqy1LsBNtaLAnsFLAdL/psqKTve53f993/9x1dvffpSZZkYd5/5szb77vv3nPPPffcc+4LgncCFm3JhPMfyISz7+8KvUvTvGOLH/BPDDsy+1bkOjs7Q3B4zaJcuGzZd/v3BEHwGbf9lNveEATB5iAI7nXH7Efh14Mg2OT2rwmC4K/dvp5f544phAlBEMxz+3+UPxs2zgnJHNRSN8WWXJXbfo/bLnXb+9yWxHmh9oU5QRCsdvvV5rzuneG2PPP75tl7XNp/HgTBj7hzQRA21IRQc+2H/WqNwnI4wT/57sOSrZlwwYOZcN7mjF9q13nHo4vcoduu/vS/vJGlMXR0dIQtdVOVQctDv+S24iN440a3L4YW3usazfebc79q9v8yCII/dXw8KwiC+UEQ/IW79skgCDa4cwXQIF577bV85ppnFnlurtuSyZlu+70e80a1UDIHxNC8cJy5Tuai8Bv+iTzChtpCYyhlbCBMDYLgJ/yTI4rV2zN7EcbwHwIZHrz+oa7t/n0pDJZsyYQUmmRxUSbPrQyb51TmvNu/z8hh+PpXvOtJEMWuAtdqzD1i44Fg2ZYODfa+I4bNp7st3/IJ71oy9NTXdYWN84qFJdB2O9rb8x3avuqJTeYR+9Gfc73lDwVBcLO5XhEEwY+Z478yz6idKx0+UoX/x+Y+QcIJ8K5Sx1boHJXOYnNe6f+0KTg0hu8y1wGdpz0GV5tjMQjfCX7KbQt4a3fVxnD/rPDbrc9l8wXW0REefXxHtmXW5LC+enyUAPqg9/HgD92xCoEC4dhmlo+wApLt/W5fQCJzfr07puDQJDgnTmH/o67gftEdqxCANAygguOelW5/onuvfYbrUr3II1DBoYkAW2kpUow2Fm/NhAsfzIQLPp8J5z2QCefc30+rS2Fx3UNdb6nQrjWFtvDBrtf8ex2QX2uCILjCv5AAPDOU58YOwjC8YvGWTHjLjlP5saqoeVFtrmVORRS3ITh/0u1LaA8GVzmKAuPZm5wARvjbDmcg6F56XcbOOkb4x4F76GwGh7Bpfl7JpaC6urryqsebb75ZGNfMnuqPp9HT4LAo8MG3mmN6JGWYnpTj20yh/bDptcDPmh5X0IfTYyptjXO0xUggQwGQqgJQP8gDnC0DA89BH3LPfMCNLmSk+LAzSPyC+149py3jq7mhdDYLDQa9oQ3K4e+6ffQYiBcrw2SOEa2OsW68xxyzVaGRSQaJuia1wMKqA+BuL60/MNdsobEvlUYVZ8eHgo6lXnHMAFTQOFM6WyHN7j21T+YtNe3NOQrq1KlTBSW3cX8P+trLVRPgDgv7YgqEpmTPcb+OURp/MKbQdM6arNADBT1nlWTb7NgykhBsoVlINwNxhaYRPvqZLTSd/7Tblp5HwYWk4Oa5bNZkn8ssPusSQLEVOJZdjabH8cfd8bXu2BYaTYRja3j8cXMfXGsLSPsL3b6aCx8KlSs0cahNz27vdPuMcpIVWubZymtkaYA6183IYn57tmYciQwHeJltiikSAnmYIkWKi8LGxzPXYCNnkIDemx9duRFW3mbp7JYMGphQ2vDod4ZL9KV4N2Hd35zfmGcyx2jPvNyZ9W280OFHt2XbFtWGrQtrwtYFVWHbmoVRFjgfVxoFwada/+YRgDTEuIFcOTDHwyDvdje3qHlGgMZoj4cDmHStJgpQ0DgHYVW038E8JeOqoUBzTeVmnocX2YMrn1y/41gOSQYdam4vjuSPHTuWHzK8+uqr+eP83NbLL/YwuVAYqE4NO1Yv8ocQFmi/VLQ/yBxNDIXZ0KQZ+vjmGUy6kuikmXSCIylovL5yi/ZuTdQaH6IIY64uZ6EQ/DR/L+LcyCLXtLgrbJwfQtu+9EyvlWJRKA698hMyBasIQ7DWpXV2YkagIvgghksWMKBPjGs1R8DYkQkY7avCZTBgmGT3Acq0pCUWEu0zD2CZ7edMukgs9v2hGE4Hmj8oB54Vs7HPWPlnzLATwJx+pXIsbwokPt+PzRLTG/ny7/eZTRYbJJNlNs79SRAEP+/S5RqMiXsI19jyzUgz7tM5XEmQkBwz3P1tty/jCUNNGh/nVrj6IH3yimcJliKuMfykPvgWjjWsLuD8MzVXY/gQdb3yuWL3KZObINNbfoy/dmlOjMZYP8bnBkRVpsUkdw/dB9tf9q7rIzdGVALgHBXM1ndd4JzPbGz/zG0pLGsWFFR4A4F7YDaYRbZaAasaTFeO2fCmsTYDoG+x8JnNwmc2von71RgFP03rGgTT+tcB5TTF5dFvfDCbdQmhF5CtA0R9N4bw4IqwYXYY7ofqwu4DNxVnR6OoZUF1Tkx2uGZS1k8vAh9zL6YAcAXBXopdmHNkWoyq1gYDYqGTBU+SUYVJy8UOy7GMVGqZq5wd9xZ37DNbpdtn+pn7uJ9jjFwW6mYwdsljDoaitUvach1m+y23L4aT9ESXksT9NXcNpuEYZpPZFuYGdM8cQxZJmA1pR754H3nT9wvsw2CSxJbZAHXEe8gTzy9x19kfPmYTsntrLxQslTNLZAxwub21+W4TJoMOVE+Mm8a6VPgd75iPVTebYqyhZ8+M/xFzFag6T28/PTObZ7JaaFLYUD3+Ef/ZMQDNWInq/BtSpEiRIkWKFCne6dj0RPt789NVzktczoD4tmm6au5mqF/sU4oUg8PyhzOZJMzmHCr3+M+nSJEIt++6UGEn4RU01IfZ8lLNTcTf1xV+dFcOA2RSYEvDtsSIkTnGoc7nDQXYg0Y+ujRFMizZmumxjOZPwOfnRdvbw+Ik/MLqsG1hzRt+OjEgUNGaJEQYAeNmHoYTmjEYLDBo4nPKLANGUmvHw4l3sjkeLjDZbmORaCSahIescRf3Un/SfjD4zSAIFrgprdHBjTszu8Rk0OGW0kS8T0f+/avZlrnT8lF+TMS3r1kc5ZRsoWkmpJmdjGcWAGu8P9E9EhgKszFNwzP4Cc8OgmCZO2YKChB0NxIGY95h473khsu8q/yUmSlgNoQZiyTfBVMpJk3Q/PFQQiGGjvMNq4oeHzc8dLLPZPzJkyfzc6JF6dbRER5ZUBUSz5H3+phd0eunZ0BXyQfRei4lBstsmt7y1QQaxvVuf7SZzYJIU6aHkjIbAsG/j+mmwXjBXDxy31jSRrzL+h2v9qKjdXREe33kcrnS3GhjQ7bIbHVTwqNLZv2dn66DpNpgpBdxxUg8JuD9SXkKh9bNdeZRfeA1QtfMs8xP4vqEvuYzG3qj3oGvnQ/u9Sf1ffjMRhfL/CFk1ynAw8JO0jM3WVqXoPBNek5zowMxG5KKcz6z0a1TPixHoNUBWCngLncf76U82CId8W6xeUHdoUxYV8HWGfdwTHkS0828NX6IdPfkm3JAHVJEirxfSgifv/VK4oPkYrTzq53dYrSzZ8/2YTbw+uuvFxnu4O0391oXoz4Jl2BdbQQy4bsXaTKde6GPmH0FcsnPi0LCkVHXpW8orJmPh+F0HWayzKawaYK15Gvnt3A/z1GwzKbQbBwIOM8+E/yAysNpQJDUBJrAxylADAQNxGyUAZPjltnk2MCzctXC1Ye05TmDO9H7jMsRzFNYnaZwjLTDWZS0OeZeXVO5E/fFOzimfgkPZwJfrlG4J2nasOTr98aXp11ZCEgrBKWdavnnxMzWdvedvdbFqJhoX9AK/IKC2RTMZgPafC8FIKYCbLVyicA5/N7Q/9i3AWq0PM5ZZtN9uDPRUnWPfa8NTyoHMZsieazHruLCaO3lmI3Ktdf07ihms6Ry8CUbz5MPCNVF98V1o/LaYA5Zcf8C3i42PEqBiMD3GEEX55hBk0B6fb24e+tntVl/ts7OjgG70faD38haqdZUNSGuG2UkRyZ8Xy8LrtPCcJXxC0SVJs9UugQLSUAc+PxnAecssykOToo2LRN3Jx9cs11hFMRsUZ61gHMwdzlmY+uPxjkXxWxRsMwmv0Akt5XsYCBm45o/UPDzaeEzG+DYdr3+dxcQ7i8xW/eBm4oDBBjrxIkTfZwmodYFNUVGO1w7qdwAAUi8Rg2vVQh8dNTySPhp2Q/23c85B+PQ6ti33SH+Y5yzzKbVSehCVclRMQSMPNW1+1DXImaLcnYEnMNHjkIfb87T+u03WZ8wnRsKs7G1kp3uTtcGYjYarcKJBXn7Av/ZoTNb9wvV/yDHSUjhylHU/ux/ZG33WT9j/ECmDxRVMRz3wgQUvrpQ6WRUPsecRwEVY6grkAs3ZgicHhUKjY4A5KbMoAKpxDXI19m4j30qHf2EZ/zuGSAhYDhG1BQiTolIVp6l+7U6G3lGb+MbYF6YWSYSdCKuc40GZ/VY7mNfuo0YZKjMJldzFHd9P9DaZ3KsBL7zI9fRIYGipbV4oP/+oTMbyDXM6lGINwznM1me3EJQYrRXqicmNeqSCY1MRRS67+xIxYoxId9lW161EPfRdQiMhBiF6bru9ZmNAlc3CnEtLhhHCyKIYEAUeWCZjTQ1QIHQVSU5+XapCJC8eAU72NH+UJhNcQMQ77OLYgH1HLZxWmZDCNiyt0LEf//FMduFpyorSsxmvXRLnrrH75rZK0bDiXJ3xQd9O9SlBJZ2q//IrdvXiVKMBfTWV2V8BhP17qnJyR0cRjtQPWEsTcRrNETrpdtmOE7XFbUOYIqxgNzX6t7jM5ncwlsXVOYXAIEO10yMM3VcSmDOsN0AjDbcMZ0pUvQBCnqcDpYiRYoUKVKkSHE542NPnPvAzY9deGntzkzn2h2Zzhug7ZnO1Y5WGVr5SIFWiLYV6HpHN+28sHPd4ydkiE+RIkWK0cfGv+16YOnWTGgjFGxIjF0y0EYsFJcP9KIXoLkPdGVv+eJb+rNSihQpUowe1u48/xgCrSjUTERMlGBDqPUTbJv7CzbWSJ27+Vx25cPn7J9sRhJM2olSpEjxbsQdu05etWZ7pqOPQDPa2oovnA7XPnwiTzdAD50I1zhaDX2hQKu2nghXbXkzXPHZo+HKe5vDFfceCVfccyS8Pk+Hw+WfPBze+pmm7eGmTcNp8WcGARcj+d2XI7lWD+f7LyXw55OHC+S7u480KEfcqPCCifITTJHi0gChtmJbpsMKMjv8/NQ/HuuxkX5JqK21NfutG6/Lts6bHhZDTiECtOZUhG3L5/3bvg0bohx5BwP8/VjC1QouXKoQXoRM4jqHQy9+hLiNyYcRwg3OX3jynYjRFGxov3iYUb7W/yGKqBdib2wHorggXALHur+EPP8h62pogduh/scUR5QTkQl2cQY6Vrk7JlmHe7hAxAURoTZ//uKilwe6v3nr1M1feum0hpo+PfH08cg/IySho0eO5A59/LZSLL0EWz7MeSqr9O5t27BsKL/woIERmanKwZEb5+okLpP4qf6of/IdjNEQbJS3QmsgGjOBg1HCiXtZ6Vd5ItJBP0i6nAVb1OrHdAJEIqsT0PoQwy3YFG0CxQFvT72T+y9f7Tp3aP2SbNPCXNh0bfj0Uzuzi7ecK9rQlm09m3uhvqPPmgwQf5c/c+ZMmM1m+8T89fT05EOy7F86RN/a9vme5nnT+gq1fEzg1LBl/oxM25rlSX4XY6FoXAgNbSR/Eo9WR6QNxP5ghrD0kESh8CxenoPRUOnh9Ww54Z9UsDErbdNLanvkexXcywIo0QEGyZBUsPHtLDvuh6CNFHgPZWLfNxyCTSD8TZFZdKpJBBvlTiANPEegTTkkEWx8g6K+kpQr74SX4JskCoOFIsUGeo72wTvi2gVpUC/cl4xfcwdX3JVrnN+rJRhY9+PAC/dkl209nVv84Jnc1xs6+wm148eP9xNoPhBwvmCDXvn7x3qai+uEiAoRWy1zKk63r11mYx/LgY9lTYqBmA7QK8FESUig0gmyphHrHT7BIESO+xVCRRKuaIOFo4jhQNQwmF6VRu/fL7KRXAwhYPw4wQYjMAxXdFUUkU/C+MoxjcIYIWJKLwZxgg2hv7bM8JbyZmEf6zKE4NPyEnHCVgHXkMIdBf5uE1fHnFegPRTHY0kFm34gS3nTSOMEG+n50YiWiPJDc9b6KjZCzyfKhjLyV9L3iZEPgJf5l1k53sW8QBishZbsgKcpY7vaBeu/wKMSqph/0OZVbz6xBg1loFBXnyjr+EUEul9cOqGwrkx/er3+jt7W1ubI4Wcmk/HlWCTQ3HzBBrU8+a+9LXMq+wo1/TCmbmr4/LJpUQsL+aBCbeGX09aIefYLJ45gAoYOYjgaGUMHGp1A78E5PUMDeL+7Rt5t+CoMiqCS0KAhwzg2lBSm4jqMam0fhJ8ilDRcQJjTEC1DlBNspKk1byAWiCI2W3lBePMrKl0nTDeqd+V+3QezXSyiBBtlonzA2H4+yKvWlKROJGSGKtioQ3UQPI8d0AJNicZn7bFJBBsx6YQbW+KctCR4Vo0yTrDRiSCs8BzwRwaEVquetXqbcLEaG8fiXXjFdvSAvJBPPY8Gr05dgg1i8s4u+yLYdyP4fOFk11aCqG+rNPB+tTvKMX7x2rd3z7ort392b2ktoxJlGxflvt1eP6waW/uX/6mnZXZFpFB7pXbS6fra8Uk1NhjfNlp6+jhwL4wcRQgO9dgUOtqAFtWC7CodPtBcpF3AbAgA2zPq/3VRoEHrPbwf4cRfvZQejc3XBAW7rlE5waa/eUGUFe+EuWAYuyYAhMBioiVuuGu1jbhvSgpfsFGOqgPW+ywH5YPyoRyGKtikiaH1l/s5ul1nIIlgoxyxp4lYXARBjZD0zQNxgg2w3BH8wx/F+D54hbyy/I8WPNNKLMLFCjYJer4ljvcApgzyDa9qTQsJNjoCv1MS7LutomChv9XxvVF5YAgvhSauvgt4+7npS3r31eXsulmibNPi3P+2v9xPuGFjO336dD8BJxtblFA7+tj2noKmNqXPgiHQwZqJXf9VPX6wNjbsRBIE0qwGAzQh/S4QQrAwNLS9tDSxKCBQxJhsSQ/G07MDraxsh9JUmBo85C9yYqH/NULlBJu1QVpCoOAkTY8Xx4Q+0Iht3i7G6OwLNupdqzIONMzVj1ZhfDTxoQo2/r2Z5Fu0Ti+URLCVG4r6iBJs1KXSQtCwuhJ8Dn9QB/Cj1Y4sLkawaUkJCG2xHOj8pNlpsR3lqdzsaty7LSTY4jrQJPVdwoXnpk/J7qs7V1g2qz+dOrKr7P9Hy1F7S0uu7RMfKSyz5WlpeaFWPWnvvppxcZrCQGBIaiuaBoLWVG5oCkMhgFTIEEJIBWlXo6SiouxgrERkh8JoRwDG0zm0kCgNFOa909yHSk/j8oXqQv9BJ4jQBGz+4gSb1QoR/GgpPngv/xVlyFROcwFosxLGMBcdQRTzWTCsp/NgVlTl6As28qB0+X4ERRQY0ksAUuc0RvvdaEY+7DAakmCjUcgOFPfnRtK3poHREGz6xyvfieD2wYSK/skLWVjBFlcv5YSLOg14xdcgBfhP9j94T3U1NgUbOPm1CVf1vlTbofUAS1RYrq3r8H09vtAaiNqPHs22rl9VXDvQCjSooWriV/aNGxelcg4WNDq7dJslKirOIM2ys1ENmqGAFXw8j5Cww1QIxvRtBVF+dTRYKsumyT72FGtHYd9fEg4Baf/CbamcYAMIfs1misgzebHp8X0I93LaC4DZWGvRTmDwbQgmhmEQDQ/mU5nzHgS/0vYFm6AVaCGeR3O40QlFlTtl5v/OQX9YV16wD7FuJHmh7EhLQ107eUAj0XeQR2xDCDI6PTUwO2QfDcFGW9Ay1OQJPuJb0CzVoG3Z++mpzCkH6oFhq7VZDyRcEBZKG+FKGnSkCDPKROlzbGdpx65gA7k9k9/Xvae6vbQkYF/qbVoe9nzzlhIdtHRzH7rw/Lpc63Uz83+S9wUai241VE98ZFN/4+hwAOZAuMBkGGCxc8jWwTkKJ6kw5T4YBi1O6eDoqz+/lwO9G/nAbkRvyrMIUoRmXMUKVCrCmskCjMQ8Sx40uSHmY0jADJu0F94X5Y4itwF6ZYZhpMeqwdhIkk+j9wXP8CzrVTLsVfmgdTCEQguPEpQ0CPKoCQ4ffDfaIAJe6WEL5V1x4Puw/TARgw2RMmMpSAlO8sI7o9xLyA+dE6YMvY9j6pd0VaZxPMM9Sn8gnrAQf0Q9h2aGto+2SZ7wz5TpQOUXNZKgPKlnDPF0INSDLTe1DSiq7AXegYbMe3k//FvphHiU+YJ3kma5kVeSd4uH49KxZR1XH/Ho/nrVF4vrnPZb79SSv2pggc48Maenpc4TaG4VwUM1k7L1VeOjhg3vdiAE0Cj09wqY0gcVazXT0Yq5TZHi8sD5Zyo3h/v6C614KiyF+p1H63qaZ03pJ9Caayfxv4Ts7hkT0tU9ysPa3+IIwYcGlyJFisHi7FOT3//Wf1a82L17Wmd5quz8vxcqO9vurjraWD2xs7GqLzVUTej87+kf2vmVyZPT9diSgyEeNh9sKgw5sWMxfIybKk+RIkWKFClSXA74fwEFWoi7hDXnAAAAAElFTkSuQmCC;" vertex="1" parent="1">
          <mxGeometry x="192.5" y="60" width="310" height="39" as="geometry" />
        </mxCell>
      </root>
    </mxGraphModel>
  </diagram>
</mxfile>
